<?xml version="1.0" standalone="no"?>
<!DOCTYPE svg PUBLIC "-//W3C//DTD SVG 20010904//EN"
 "http://www.w3.org/TR/2001/REC-SVG-20010904/DTD/svg10.dtd">
<svg version="1.0" xmlns="http://www.w3.org/2000/svg"
 width="260.000000pt" height="260.000000pt" viewBox="0 0 260.000000 260.000000"
 preserveAspectRatio="xMidYMid meet">
<metadata>
Created by potrace 1.11, written by Peter Selinger 2001-2013
</metadata>
<g transform="translate(0.000000,260.000000) scale(0.100000,-0.100000)"
fill="#000000" stroke="none">
<path d="M213 2582 c-92 -33 -158 -97 -194 -191 -18 -49 -19 -89 -18 -1093 0
-1034 0 -1043 21 -1098 28 -73 105 -150 178 -178 55 -21 60 -21 1110 -19
l1055 2 57 28 c69 34 130 100 157 171 20 50 20 76 18 1106 l-2 1055 -28 57
c-34 69 -100 130 -171 157 -50 19 -81 20 -1091 20 -974 0 -1043 -1 -1092 -17z"/>
</g>
</svg>
