<?xml version="1.0" standalone="yes"?>

<svg version="1.1" viewBox="0.0 0.0 450.0 250.0" fill="none" stroke="none" stroke-linecap="square" stroke-miterlimit="10" xmlns="http://www.w3.org/2000/svg" xmlns:xlink="http://www.w3.org/1999/xlink"><clipPath id="p.0"><path d="m0 0l450.0 0l0 250.0l-450.0 0l0 -250.0z" clip-rule="nonzero"></path></clipPath><g clip-path="url(#p.0)"><path fill="#000000" fill-opacity="0.0" d="m0 0l450.0 0l0 250.0l-450.0 0z" fill-rule="evenodd"></path><path fill="#2b2b2b" d="m-0.002624672 0.010498688l449.98425 0l0 250.01575l-449.98425 0z" fill-rule="evenodd"></path><path fill="#000000" fill-opacity="0.0" d="m0 96.88844l449.98425 0l0 37.259842l-449.98425 0z" fill-rule="evenodd"></path><path fill="#a2b2bf" d="m74.460266 118.70899l0 13.609367l-2.828125 0l0 -33.421867l11.390625 0q5.203125 0 8.21875 2.671875q3.015625 2.65625 3.015625 7.3125q0 4.703125 -2.90625 7.265625q-2.890625 2.5625 -8.40625 2.5625l-8.484375 0zm0 -2.390625l8.5625 0q4.109375 0 6.265625 -1.9375q2.15625 -1.953125 2.15625 -5.453125q0 -3.453125 -2.15625 -5.5q-2.140625 -2.0625 -6.078125 -2.109375l-8.75 0l0 15.0zm28.742935 13.609367l16.5 0l0 2.390625l-19.34375 0l0 -33.421867l2.84375 0l0 31.031242zm39.784225 -6.9687424l-15.171875 0l-3.4375 9.359367l-2.96875 0l12.640625 -33.421867l2.6875 0l12.640625 33.421867l-2.9375 0l-3.453125 -9.359367zm-14.296875 -2.40625l13.390625 0l-6.6875 -18.203125l-6.703125 18.203125zm49.05925 1.34375q-0.578125 5.28125 -3.78125 8.078117q-3.203125 2.796875 -8.53125 2.796875q-3.71875 0 -6.578125 -1.859375q-2.84375 -1.859375 -4.40625 -5.2656174q-1.5625 -3.40625 -1.59375 -7.78125l0 -4.34375q0 -4.453125 1.5625 -7.890625q1.5625 -3.4375 4.484375 -5.3125q2.9375 -1.875 6.75 -1.875q5.359375 0 8.46875 2.90625q3.109375 2.90625 3.625 8.015625l-2.859375 0q-1.046875 -8.515625 -9.234375 -8.515625q-4.546875 0 -7.25 3.40625q-2.6875 3.390625 -2.6875 9.375l0 4.09375q0 5.78125 2.625 9.234375q2.625 3.4374924 7.09375 3.4374924q4.4375 0 6.6875 -2.125q2.25 -2.1249924 2.765625 -6.3749924l2.859375 0zm25.080475 -5.59375l-15.625 0l0 13.624992l17.96875 0l0 2.390625l-20.796875 0l0 -33.421867l20.6875 0l0 2.421875l-17.859375 0l0 12.59375l15.625 0l0 2.390625zm32.8528 16.015617l-2.84375 0l0 -16.015617l-19.09375 0l0 16.015617l-2.828125 0l0 -33.421867l2.828125 0l0 15.015625l19.09375 0l0 -15.015625l2.84375 0l0 33.421867zm32.947723 -14.890617q0 4.609375 -1.609375 8.09375q-1.59375 3.4843674 -4.546875 5.3749924q-2.953125 1.875 -6.8437653 1.875q-5.84375 0 -9.453125 -4.1875q-3.59375 -4.1874924 -3.59375 -11.296867l0 -3.4375q0 -4.578125 1.609375 -8.09375q1.625 -3.53125 4.578125 -5.421875q2.96875 -1.890625 6.8125 -1.890625q3.8593903 0 6.8125153 1.859375q2.953125 1.859375 4.546875 5.265625q1.609375 3.390625 1.6875 7.859375l0 4.0zm-2.828125 -3.625q0 -6.046875 -2.734375 -9.453125q-2.734375 -3.421875 -7.4843903 -3.421875q-4.65625 0 -7.421875 3.4375q-2.765625 3.421875 -2.765625 9.578125l0 3.484375q0 5.9375 2.75 9.421875q2.765625 3.4687424 7.484375 3.4687424q4.7968903 0 7.4843903 -3.4218674q2.6875 -3.4375 2.6875 -9.5625l0 -3.53125zm12.543701 16.124992l16.5 0l0 2.390625l-19.34375 0l0 -33.421867l2.84375 0l0 31.031242zm21.737366 2.390625l0 -33.421867l9.34375 0q4.109375 0 7.359375 1.875q3.265625 1.875 5.09375 5.359375q1.828125 3.484375 1.828125 7.9375l0 3.078125q0 4.484375 -1.8125 7.953125q-1.8125 3.4531174 -5.109375 5.3437424q-3.296875 1.875 -7.5625 1.875l-9.140625 0zm2.828125 -30.999992l0 28.609367l6.328125 0q5.28125 0 8.46875 -3.4999924q3.1875 -3.5 3.1875 -9.46875l0 -2.9375q0 -5.75 -3.140625 -9.21875q-3.140625 -3.46875 -8.28125 -3.484375l-6.5625 0zm46.174805 14.984375l-15.625 0l0 13.624992l17.96875 0l0 2.390625l-20.796875 0l0 -33.421867l20.6875 0l0 2.421875l-17.859375 0l0 12.59375l15.625 0l0 2.390625zm20.571533 2.109375l-9.703125 0l0 13.906242l-2.84375 0l0 -33.421867l10.859375 0q5.34375 0 8.34375 2.59375q3.015625 2.59375 3.015625 7.265625q0 3.203125 -1.890625 5.671875q-1.875 2.453125 -5.046875 3.390625l8.359375 14.203117l0 0.296875l-3.015625 0l-8.078125 -13.906242zm-9.703125 -2.40625l8.65625 0q3.546875 0 5.703125 -2.015625q2.15625 -2.03125 2.15625 -5.234375q0 -3.546875 -2.25 -5.484375q-2.234375 -1.953125 -6.296875 -1.953125l-7.96875 0l0 14.6875z" fill-rule="nonzero"></path><path fill="#000000" fill-opacity="0.0" d="m0.002624672 134.11943l449.98425 0l0 18.992126l-449.98425 0z" fill-rule="evenodd"></path><path fill="#a2b2bf" d="m93.58795 146.05237q-0.171875 1.875 -1.28125 2.875q-1.109375 1.0 -3.03125 1.0q-1.28125 0 -2.28125 -0.65625q-0.984375 -0.65625 -1.53125 -1.84375q-0.546875 -1.203125 -0.546875 -2.75l0 -1.875q0 -1.53125 0.53125 -2.75q0.546875 -1.21875 1.546875 -1.875q1.0 -0.671875 2.28125 -0.671875q1.90625 0 3.015625 1.0q1.125 0.984375 1.296875 2.84375l-0.4375 0q-0.203125 -1.65625 -1.171875 -2.515625q-0.96875 -0.875 -2.703125 -0.875q-1.75 0 -2.84375 1.328125q-1.078125 1.328125 -1.078125 3.546875l0 1.78125q0 1.4375 0.484375 2.53125q0.484375 1.09375 1.375 1.71875q0.90625 0.609375 2.0625 0.609375q1.75 0 2.71875 -0.859375q0.96875 -0.859375 1.15625 -2.5625l0.4375 0zm11.571503 -1.4375q0 1.578125 -0.5625 2.78125q-0.5625 1.203125 -1.609375 1.875q-1.03125 0.65625 -2.375 0.65625q-2.046875 0 -3.3125 -1.453125q-1.25 -1.453125 -1.25 -3.921875l0 -1.75q0 -1.5625 0.546875 -2.765625q0.5625 -1.21875 1.609375 -1.875q1.046875 -0.65625 2.390625 -0.65625q1.34375 0 2.390625 0.65625q1.046875 0.65625 1.609375 1.875q0.5625 1.21875 0.5625 2.765625l0 1.8125zm-0.453125 -1.828125q0 -2.1875 -1.109375 -3.5q-1.109375 -1.328125 -3.0 -1.328125q-1.875 0 -2.984375 1.3125q-1.109375 1.3125 -1.109375 3.578125l0 1.765625q0 1.453125 0.5 2.5625q0.5 1.09375 1.421875 1.703125q0.9375 0.59375 2.1875 0.59375q1.890625 0 2.984375 -1.3125q1.109375 -1.328125 1.109375 -3.609375l0 -1.765625zm12.150177 6.96875l-0.453125 0l-7.8125 -11.328125l0 11.328125l-0.453125 0l0 -12.09375l0.453125 0l7.8125 11.3125l0 -11.3125l0.453125 0l0 12.09375zm11.5881195 -11.640625l-4.40625 0l0 11.640625l-0.4375 0l0 -11.640625l-4.40625 0l0 -0.453125l9.25 0l0 0.453125zm8.825012 5.640625l-6.0625 0l0 5.546875l6.90625 0l0 0.453125l-7.359375 0l0 -12.09375l7.359375 0l0 0.453125l-6.90625 0l0 5.203125l6.0625 0l0 0.4375zm12.068649 6.0l-0.453125 0l-7.8125 -11.328125l0 11.328125l-0.453125 0l0 -12.09375l0.453125 0l7.8125 11.3125l0 -11.3125l0.453125 0l0 12.09375zm11.5881195 -11.640625l-4.40625 0l0 11.640625l-0.4375 0l0 -11.640625l-4.40625 0l0 -0.453125l9.25 0l0 0.453125zm8.8615265 10.890625l0.546875 -1.984375l2.859375 -9.359375l0.484375 0l2.84375 9.359375l0.546875 1.984375l0.5625 -1.984375l2.484375 -9.359375l0.5 0l-3.265625 12.09375l-0.5 0l-3.0 -10.078125l-0.421875 -1.28125l-0.40625 1.28125l-3.015625 10.078125l-0.515625 0l-3.265625 -12.09375l0.5 0l2.515625 9.359375l0.546875 1.984375zm14.07016 0.75l-0.4375 0l0 -12.09375l0.4375 0l0 12.09375zm4.190048 -0.453125l6.203125 0l0 0.453125l-6.65625 0l0 -12.09375l0.453125 0l0 11.640625zm8.943283 0l6.203125 0l0 0.453125l-6.65625 0l0 -12.09375l0.453125 0l0 11.640625zm12.636047 0.453125l0 -12.09375l3.1875 0q1.953125 0 2.953125 0.796875q1.0 0.796875 1.0 2.3125q0 1.09375 -0.5625 1.8125q-0.5625 0.71875 -1.5625 0.921875q1.140625 0.15625 1.90625 1.0q0.765625 0.828125 0.765625 1.921875q0 1.546875 -1.0 2.4375q-1.0 0.890625 -2.796875 0.890625l-3.890625 0zm0.453125 -5.96875l0 5.515625l3.5 0q1.53125 0 2.40625 -0.75q0.875 -0.765625 0.875 -2.109375q0 -1.140625 -0.84375 -1.875q-0.84375 -0.75 -2.265625 -0.78125l-3.671875 0zm0 -0.453125l2.890625 0q1.65625 0 2.484375 -0.625q0.84375 -0.640625 0.84375 -1.96875q0 -2.578125 -3.390625 -2.625l-2.828125 0l0 5.21875zm16.51184 0.421875l-6.0625 0l0 5.546875l6.90625 0l0 0.453125l-7.359375 0l0 -12.09375l7.359375 0l0 0.453125l-6.90625 0l0 5.203125l6.0625 0l0 0.4375zm13.870789 2.390625l-5.921875 0l-1.34375 3.609375l-0.484375 0l4.515625 -12.09375l0.546875 0l4.53125 12.09375l-0.5 0l-1.34375 -3.609375zm-5.75 -0.453125l5.578125 0l-2.78125 -7.484375l-2.796875 7.484375zm12.910309 2.890625l0.234375 0.71875l0.25 -0.71875l4.046875 -10.921875l0.5 0l-4.515625 12.09375l-0.546875 0l-4.515625 -12.09375l0.484375 0l4.0625 10.921875zm13.535309 -2.4375l-5.921875 0l-1.34375 3.609375l-0.484375 0l4.515625 -12.09375l0.546875 0l4.53125 12.09375l-0.5 0l-1.34375 -3.609375zm-5.75 -0.453125l5.578125 0l-2.78125 -7.484375l-2.796875 7.484375zm10.504059 4.0625l-0.4375 0l0 -12.09375l0.4375 0l0 12.09375zm4.1900635 -0.453125l6.203125 0l0 0.453125l-6.65625 0l0 -12.09375l0.453125 0l0 11.640625zm14.865143 -3.15625l-5.921875 0l-1.34375 3.609375l-0.484375 0l4.515625 -12.09375l0.546875 0l4.53125 12.09375l-0.5 0l-1.34375 -3.609375zm-5.75 -0.453125l5.578125 0l-2.78125 -7.484375l-2.796875 7.484375zm9.722809 4.0625l0 -12.09375l3.1875 0q1.953125 0 2.953125 0.796875q1.0 0.796875 1.0 2.3125q0 1.09375 -0.5625 1.8125q-0.5625 0.71875 -1.5625 0.921875q1.140625 0.15625 1.90625 1.0q0.765625 0.828125 0.765625 1.921875q0 1.546875 -1.0 2.4375q-1.0 0.890625 -2.796875 0.890625l-3.890625 0zm0.453125 -5.96875l0 5.515625l3.5 0q1.53125 0 2.40625 -0.75q0.875 -0.765625 0.875 -2.109375q0 -1.140625 -0.84375 -1.875q-0.84375 -0.75 -2.265625 -0.78125l-3.671875 0zm0 -0.453125l2.890625 0q1.65625 0 2.484375 -0.625q0.84375 -0.640625 0.84375 -1.96875q0 -2.578125 -3.390625 -2.625l-2.828125 0l0 5.21875zm10.449341 5.96875l6.203125 0l0 0.453125l-6.65625 0l0 -12.09375l0.453125 0l0 11.640625zm15.005798 -5.546875l-6.0625 0l0 5.546875l6.90625 0l0 0.453125l-7.359375 0l0 -12.09375l7.359375 0l0 0.453125l-6.90625 0l0 5.203125l6.0625 0l0 0.4375zm14.745789 3.109375q0 -0.78125 -0.375 -1.3125q-0.359375 -0.53125 -1.140625 -0.9375q-0.765625 -0.421875 -2.34375 -0.84375q-1.5625 -0.4375 -2.34375 -0.875q-0.78125 -0.453125 -1.15625 -1.03125q-0.359375 -0.578125 -0.359375 -1.40625q0 -1.3125 1.109375 -2.125q1.109375 -0.828125 2.90625 -0.828125q1.15625 0 2.078125 0.453125q0.921875 0.453125 1.421875 1.265625q0.515625 0.8125 0.515625 1.84375l-0.4375 0q0 -1.34375 -1.0 -2.21875q-1.0 -0.890625 -2.578125 -0.890625q-1.59375 0 -2.578125 0.703125q-0.984375 0.703125 -0.984375 1.78125q0 1.09375 0.84375 1.765625q0.859375 0.65625 2.828125 1.171875q1.96875 0.5 2.875 1.171875q1.171875 0.859375 1.171875 2.296875q0 0.90625 -0.515625 1.609375q-0.515625 0.703125 -1.46875 1.09375q-0.9375 0.375 -2.125 0.375q-1.3125 0 -2.359375 -0.4375q-1.046875 -0.4375 -1.578125 -1.234375q-0.515625 -0.8125 -0.515625 -1.90625l0.453125 0q0 1.484375 1.109375 2.3125q1.109375 0.8125 2.890625 0.8125q1.59375 0 2.625 -0.71875q1.03125 -0.734375 1.03125 -1.890625zm11.558777 -2.25q0 1.578125 -0.5625 2.78125q-0.5625 1.203125 -1.609375 1.875q-1.03125 0.65625 -2.375 0.65625q-2.046875 0 -3.3125 -1.453125q-1.25 -1.453125 -1.25 -3.921875l0 -1.75q0 -1.5625 0.546875 -2.765625q0.5625 -1.21875 1.609375 -1.875q1.046875 -0.65625 2.390625 -0.65625q1.34375 0 2.390625 0.65625q1.046875 0.65625 1.609375 1.875q0.5625 1.21875 0.5625 2.765625l0 1.8125zm-0.453125 -1.828125q0 -2.1875 -1.109375 -3.5q-1.109375 -1.328125 -3.0 -1.328125q-1.875 0 -2.984375 1.3125q-1.109375 1.3125 -1.109375 3.578125l0 1.765625q0 1.453125 0.5 2.5625q0.5 1.09375 1.421875 1.703125q0.9375 0.59375 2.1875 0.59375q1.890625 0 2.984375 -1.3125q1.109375 -1.328125 1.109375 -3.609375l0 -1.765625zm11.9938965 1.828125q0 1.578125 -0.5625 2.78125q-0.5625 1.203125 -1.609375 1.875q-1.03125 0.65625 -2.375 0.65625q-2.046875 0 -3.3125 -1.453125q-1.25 -1.453125 -1.25 -3.921875l0 -1.75q0 -1.5625 0.546875 -2.765625q0.5625 -1.21875 1.609375 -1.875q1.046875 -0.65625 2.390625 -0.65625q1.34375 0 2.390625 0.65625q1.046875 0.65625 1.609375 1.875q0.5625 1.21875 0.5625 2.765625l0 1.8125zm-0.453125 -1.828125q0 -2.1875 -1.109375 -3.5q-1.109375 -1.328125 -3.0 -1.328125q-1.875 0 -2.984375 1.3125q-1.109375 1.3125 -1.109375 3.578125l0 1.765625q0 1.453125 0.5 2.5625q0.5 1.09375 1.421875 1.703125q0.9375 0.59375 2.1875 0.59375q1.890625 0 2.984375 -1.3125q1.109375 -1.328125 1.109375 -3.609375l0 -1.765625zm12.150177 6.96875l-0.453125 0l-7.8125 -11.328125l0 11.328125l-0.453125 0l0 -12.09375l0.453125 0l7.8125 11.3125l0 -11.3125l0.453125 0l0 12.09375z" fill-rule="nonzero"></path></g></svg>

