<?xml version="1.0" encoding="UTF-8" standalone="no"?>
<svg
   xmlns:dc="http://purl.org/dc/elements/1.1/"
   xmlns:cc="http://creativecommons.org/ns#"
   xmlns:rdf="http://www.w3.org/1999/02/22-rdf-syntax-ns#"
   xmlns:svg="http://www.w3.org/2000/svg"
   xmlns="http://www.w3.org/2000/svg"
   id="svg2"
   stroke-miterlimit="10"
   stroke-linecap="square"
   stroke="none"
   fill="none"
   viewBox="0.0 0.0 450.0 250.0"
   version="1.1">
  <metadata
     id="metadata25">
    <rdf:RDF>
      <cc:Work
         rdf:about="">
        <dc:format>image/svg+xml</dc:format>
        <dc:type
           rdf:resource="http://purl.org/dc/dcmitype/StillImage" />
        <dc:title></dc:title>
      </cc:Work>
    </rdf:RDF>
  </metadata>
  <defs
     id="defs23" />
  <clipPath
     id="p.0">
    <path
       id="path5"
       clip-rule="nonzero"
       d="m0 0l450.0 0l0 250.0l-450.0 0l0 -250.0z" />
  </clipPath>
  <g
     id="g7"
     clip-path="url(#p.0)">
    <path
       id="path9"
       fill-rule="evenodd"
       d="m0 0l450.0 0l0 250.0l-450.0 0z"
       fill-opacity="0.0"
       fill="#000000" />
    <path
       id="path11"
       fill-rule="evenodd"
       d="m-0.002624672 0.010498688l449.98425 0l0 250.01575l-449.98425 0z"
       fill="#2b2b2b" />
    <path
       id="path13"
       fill-rule="evenodd"
       d="m0 96.88844l449.98425 0l0 37.259842l-449.98425 0z"
       fill-opacity="0.0"
       fill="#000000" />
    <path
       id="path17"
       fill-rule="evenodd"
       d="m0.002624672 134.11943l449.98425 0l0 18.992126l-449.98425 0z"
       fill-opacity="0.0"
       fill="#000000" />
    <g
       id="text4153"
       style="font-style:normal;font-variant:normal;font-weight:300;font-stretch:normal;font-size:45.74500275px;line-height:80.00000119%;font-family:Roboto;-inkscape-font-specification:'Roboto, Light';text-align:center;letter-spacing:0px;word-spacing:0px;writing-mode:lr-tb;text-anchor:middle;fill:#a2b2bf;fill-opacity:1;stroke:none;stroke-width:1px;stroke-linecap:butt;stroke-linejoin:miter;stroke-opacity:1">
      <path
         id="path4187"
         style="font-style:normal;font-variant:normal;font-weight:300;font-stretch:normal;font-size:45.74500275px;line-height:80.00000119%;font-family:Roboto;-inkscape-font-specification:'Roboto, Light';text-align:center;writing-mode:lr-tb;text-anchor:middle;fill:#a2b2bf;fill-opacity:1"
         d="m 124.98865,118.94236 0.17869,0.69243 0.20103,-0.69243 10.23008,-28.501277 3.01542,0 -12.10634,32.521837 -2.6357,0 -12.10635,-32.521837 2.99309,0 10.23008,28.501277 z" />
      <path
         id="path4189"
         style="font-style:normal;font-variant:normal;font-weight:300;font-stretch:normal;font-size:45.74500275px;line-height:80.00000119%;font-family:Roboto;-inkscape-font-specification:'Roboto, Light';text-align:center;writing-mode:lr-tb;text-anchor:middle;fill:#a2b2bf;fill-opacity:1"
         d="m 146.76667,122.96292 -2.74738,0 0,-32.521837 2.74738,0 0,32.521837 z" />
      <path
         id="path4191"
         style="font-style:normal;font-variant:normal;font-weight:300;font-stretch:normal;font-size:45.74500275px;line-height:80.00000119%;font-family:Roboto;-inkscape-font-specification:'Roboto, Light';text-align:center;writing-mode:lr-tb;text-anchor:middle;fill:#a2b2bf;fill-opacity:1"
         d="m 155.56722,122.96292 0,-32.521837 9.09093,0 q 3.99822,0 7.16999,1.831587 3.17177,1.809251 4.93635,5.204388 1.78691,3.395132 1.78691,7.728402 l 0,2.99308 q 0,4.35561 -1.76457,7.72841 -1.76458,3.3728 -4.98103,5.20438 -3.19411,1.83159 -7.34868,1.83159 l -8.8899,0 z m 2.74738,-30.176512 0,27.853522 6.16485,0 q 5.13738,0 8.24215,-3.39513 3.10476,-3.41748 3.10476,-9.22495 l 0,-2.85906 q 0,-5.606444 -3.06009,-8.979245 -3.06009,-3.3728 -8.06345,-3.395137 l -6.38822,0 z" />
      <path
         id="path4193"
         style="font-style:normal;font-variant:normal;font-weight:300;font-stretch:normal;font-size:45.74500275px;line-height:80.00000119%;font-family:Roboto;-inkscape-font-specification:'Roboto, Light';text-align:center;writing-mode:lr-tb;text-anchor:middle;fill:#a2b2bf;fill-opacity:1"
         d="m 203.45652,107.3721 -15.21111,0 0,13.26783 17.48942,0 0,2.32299 -20.2368,0 0,-32.521837 20.12512,0 0,2.345325 -17.37774,0 0,12.262702 15.21111,0 0,2.32299 z" />
      <path
         id="path4195"
         style="font-style:normal;font-variant:normal;font-weight:300;font-stretch:normal;font-size:45.74500275px;line-height:80.00000119%;font-family:Roboto;-inkscape-font-specification:'Roboto, Light';text-align:center;writing-mode:lr-tb;text-anchor:middle;fill:#a2b2bf;fill-opacity:1"
         d="m 235.53163,108.46658 q 0,4.48962 -1.56355,7.88476 -1.54122,3.39514 -4.42261,5.22672 -2.8814,1.83159 -6.65626,1.83159 -5.69579,0 -9.20261,-4.06523 -3.50682,-4.08757 -3.50682,-11.01186 l 0,-3.35046 q 0,-4.44495 1.56355,-7.862425 1.58589,-3.43981 4.46729,-5.271397 2.8814,-1.853923 6.63392,-1.853923 3.75252,0 6.61158,1.80925 2.8814,1.809251 4.44495,5.115042 1.56355,3.305793 1.63056,7.661393 l 0,3.88654 z m -2.74738,-3.52916 q 0,-5.874476 -2.65804,-9.202604 -2.65803,-3.328127 -7.28167,-3.328127 -4.5343,0 -7.23701,3.350464 -2.68037,3.328128 -2.68037,9.314287 l 0,3.39514 q 0,5.78513 2.68037,9.18027 2.68038,3.3728 7.28168,3.3728 4.66831,0 7.28168,-3.32813 2.61336,-3.35046 2.61336,-9.31429 l 0,-3.43981 z" />
      <path
         id="path4197"
         style="font-style:normal;font-variant:normal;font-weight:300;font-stretch:normal;font-size:45.74500275px;line-height:80.00000119%;font-family:Roboto;-inkscape-font-specification:'Roboto, Light';text-align:center;writing-mode:lr-tb;text-anchor:middle;fill:#a2b2bf;fill-opacity:1"
         d="m 277.8815,122.96292 -2.74738,0 -18.69559,-27.831187 0,27.831187 -2.76972,0 0,-32.521837 2.76972,0 18.71793,27.853527 0,-27.853527 2.72504,0 0,32.521837 z" />
      <path
         id="path4199"
         style="font-style:normal;font-variant:normal;font-weight:300;font-stretch:normal;font-size:45.74500275px;line-height:80.00000119%;font-family:Roboto;-inkscape-font-specification:'Roboto, Light';text-align:center;writing-mode:lr-tb;text-anchor:middle;fill:#a2b2bf;fill-opacity:1"
         d="m 310.22464,108.46658 q 0,4.48962 -1.56355,7.88476 -1.54121,3.39514 -4.42261,5.22672 -2.8814,1.83159 -6.65625,1.83159 -5.69579,0 -9.20261,-4.06523 -3.50682,-4.08757 -3.50682,-11.01186 l 0,-3.35046 q 0,-4.44495 1.56355,-7.862425 1.58589,-3.43981 4.46728,-5.271397 2.8814,-1.853923 6.63392,-1.853923 3.75252,0 6.61159,1.80925 2.88139,1.809251 4.44494,5.115042 1.56355,3.305793 1.63056,7.661393 l 0,3.88654 z m -2.74738,-3.52916 q 0,-5.874476 -2.65803,-9.202604 -2.65804,-3.328127 -7.28168,-3.328127 -4.53429,0 -7.237,3.350464 -2.68037,3.328128 -2.68037,9.314287 l 0,3.39514 q 0,5.78513 2.68037,9.18027 2.68037,3.3728 7.28168,3.3728 4.66831,0 7.28167,-3.32813 2.61336,-3.35046 2.61336,-9.31429 l 0,-3.43981 z" />
      <path
         id="path4201"
         style="font-style:normal;font-variant:normal;font-weight:300;font-stretch:normal;font-size:45.74500275px;line-height:80.00000119%;font-family:Roboto;-inkscape-font-specification:'Roboto, Light';text-align:center;writing-mode:lr-tb;text-anchor:middle;fill:#a2b2bf;fill-opacity:1"
         d="m 338.63657,92.786408 -11.14588,0 0,30.176512 -2.74738,0 0,-30.176512 -11.12354,0 0,-2.345325 25.0168,0 0,2.345325 z" />
      <path
         id="path4203"
         style="font-style:normal;font-variant:normal;font-weight:300;font-stretch:normal;font-size:45.74500275px;line-height:80.00000119%;font-family:Roboto;-inkscape-font-specification:'Roboto, Light';text-align:center;writing-mode:lr-tb;text-anchor:middle;fill:#a2b2bf;fill-opacity:1"
         d="m 120.45435,151.56248 q 0,-2.7027 -1.89859,-4.26625 -1.8986,-1.58589 -6.94663,-2.99309 -5.04803,-1.42953 -7.37102,-3.10476 -3.30579,-2.36766 -3.30579,-6.20953 0,-3.73018 3.06009,-6.05317 3.08242,-2.34532 7.86242,-2.34532 3.23878,0 5.78513,1.25084 2.56869,1.25084 3.97589,3.48448 1.40719,2.23364 1.40719,4.98102 l -2.76971,0 q 0,-3.32812 -2.27832,-5.3384 -2.27831,-2.03262 -6.12018,-2.03262 -3.73018,0 -5.94149,1.67523 -2.21131,1.6529 -2.21131,4.33327 0,2.47934 1.98795,4.04289 1.98794,1.56355 6.36588,2.76972 4.37794,1.18383 6.63392,2.47934 2.25598,1.27318 3.39513,3.0601 1.13916,1.78691 1.13916,4.22158 0,3.84187 -3.08243,6.16485 -3.06009,2.32299 -8.08578,2.32299 -3.43981,0 -6.32121,-1.2285 -2.85906,-1.2285 -4.3556,-3.43981 -1.474208,-2.21131 -1.474208,-5.07037 l 2.747378,0 q 0,3.43981 2.56869,5.42775 2.56869,1.98794 6.83495,1.98794 3.79719,0 6.09784,-1.67523 2.30065,-1.67523 2.30065,-4.44495 z" />
      <path
         id="path4205"
         style="font-style:normal;font-variant:normal;font-weight:300;font-stretch:normal;font-size:45.74500275px;line-height:80.00000119%;font-family:Roboto;-inkscape-font-specification:'Roboto, Light';text-align:center;writing-mode:lr-tb;text-anchor:middle;fill:#a2b2bf;fill-opacity:1"
         d="m 151.52432,127.03709 0,22.2024 q -0.0223,3.28346 -1.45186,5.71813 -1.42954,2.43467 -4.0429,3.75252 -2.59102,1.29551 -5.96382,1.29551 -5.13738,0 -8.24214,-2.79205 -3.08243,-2.81439 -3.19411,-7.77308 l 0,-22.40343 2.72504,0 0,22.00138 q 0,4.1099 2.34533,6.38821 2.34532,2.25598 6.36588,2.25598 4.02055,0 6.34354,-2.27831 2.34533,-2.27832 2.34533,-6.34355 l 0,-22.02371 2.76971,0 z" />
      <path
         id="path4207"
         style="font-style:normal;font-variant:normal;font-weight:300;font-stretch:normal;font-size:45.74500275px;line-height:80.00000119%;font-family:Roboto;-inkscape-font-specification:'Roboto, Light';text-align:center;writing-mode:lr-tb;text-anchor:middle;fill:#a2b2bf;fill-opacity:1"
         d="m 161.97777,146.31342 0,13.2455 -2.74738,0 0,-32.52183 11.07887,0 q 5.07037,0 7.99644,2.59102 2.94841,2.59103 2.94841,7.12532 0,4.57897 -2.83673,7.08065 -2.81439,2.47934 -8.17513,2.47934 l -8.26448,0 z m 0,-2.32299 8.33149,0 q 3.99822,0 6.09784,-1.89859 2.09963,-1.8986 2.09963,-5.29374 0,-3.3728 -2.09963,-5.36074 -2.07729,-2.01028 -5.91915,-2.05495 l -8.51018,0 0,14.60802 z" />
      <path
         id="path4209"
         style="font-style:normal;font-variant:normal;font-weight:300;font-stretch:normal;font-size:45.74500275px;line-height:80.00000119%;font-family:Roboto;-inkscape-font-specification:'Roboto, Light';text-align:center;writing-mode:lr-tb;text-anchor:middle;fill:#a2b2bf;fill-opacity:1"
         d="m 190.12167,146.31342 0,13.2455 -2.74738,0 0,-32.52183 11.07887,0 q 5.07037,0 7.99644,2.59102 2.94841,2.59103 2.94841,7.12532 0,4.57897 -2.83673,7.08065 -2.81439,2.47934 -8.17513,2.47934 l -8.26448,0 z m 0,-2.32299 8.33149,0 q 3.99822,0 6.09784,-1.89859 2.09962,-1.8986 2.09962,-5.29374 0,-3.3728 -2.09962,-5.36074 -2.07729,-2.01028 -5.91915,-2.05495 l -8.51018,0 0,14.60802 z" />
      <path
         id="path4211"
         style="font-style:normal;font-variant:normal;font-weight:300;font-stretch:normal;font-size:45.74500275px;line-height:80.00000119%;font-family:Roboto;-inkscape-font-specification:'Roboto, Light';text-align:center;writing-mode:lr-tb;text-anchor:middle;fill:#a2b2bf;fill-opacity:1"
         d="m 239.55218,145.06258 q 0,4.48962 -1.56355,7.88476 -1.54121,3.39514 -4.42261,5.22673 -2.8814,1.83158 -6.65626,1.83158 -5.69578,0 -9.2026,-4.06523 -3.50682,-4.08756 -3.50682,-11.01186 l 0,-3.35046 q 0,-4.44495 1.56355,-7.86242 1.58588,-3.43981 4.46728,-5.2714 2.8814,-1.85392 6.63392,-1.85392 3.75252,0 6.61158,1.80925 2.8814,1.80925 4.44495,5.11504 1.56355,3.30579 1.63056,7.66139 l 0,3.88654 z m -2.74738,-3.52915 q 0,-5.87448 -2.65803,-9.20261 -2.65804,-3.32813 -7.28168,-3.32813 -4.53429,0 -7.237,3.35047 -2.68037,3.32812 -2.68037,9.31429 l 0,3.39513 q 0,5.78514 2.68037,9.18027 2.68037,3.3728 7.28167,3.3728 4.66832,0 7.28168,-3.32812 2.61336,-3.35047 2.61336,-9.31429 l 0,-3.43981 z" />
      <path
         id="path4213"
         style="font-style:normal;font-variant:normal;font-weight:300;font-stretch:normal;font-size:45.74500275px;line-height:80.00000119%;font-family:Roboto;-inkscape-font-specification:'Roboto, Light';text-align:center;writing-mode:lr-tb;text-anchor:middle;fill:#a2b2bf;fill-opacity:1"
         d="m 258.67217,146.02305 -9.44831,0 0,13.53587 -2.76972,0 0,-32.52183 10.56513,0 q 5.20439,0 8.13046,2.52401 2.92608,2.52402 2.92608,7.05831 0,3.1271 -1.83159,5.5171 -1.83159,2.39 -4.91401,3.30579 l 8.13045,13.82625 0,0.29037 -2.92607,0 -7.86242,-13.53587 z m -9.44831,-2.34533 8.42083,0 q 3.46215,0 5.56178,-1.9656 2.09962,-1.96561 2.09962,-5.09271 0,-3.43981 -2.18897,-5.3384 -2.18897,-1.8986 -6.14252,-1.8986 l -7.75074,0 0,14.29531 z" />
      <path
         id="path4215"
         style="font-style:normal;font-variant:normal;font-weight:300;font-stretch:normal;font-size:45.74500275px;line-height:80.00000119%;font-family:Roboto;-inkscape-font-specification:'Roboto, Light';text-align:center;writing-mode:lr-tb;text-anchor:middle;fill:#a2b2bf;fill-opacity:1"
         d="m 295.83997,129.38241 -11.14588,0 0,30.17651 -2.74738,0 0,-30.17651 -11.12354,0 0,-2.34532 25.0168,0 0,2.34532 z" />
      <path
         id="path4217"
         style="font-style:normal;font-variant:normal;font-weight:300;font-stretch:normal;font-size:45.74500275px;line-height:80.00000119%;font-family:Roboto;-inkscape-font-specification:'Roboto, Light';text-align:center;writing-mode:lr-tb;text-anchor:middle;fill:#a2b2bf;fill-opacity:1"
         d="m 319.06987,143.9681 -15.21111,0 0,13.26784 17.48942,0 0,2.32298 -20.2368,0 0,-32.52183 20.12512,0 0,2.34532 -17.37774,0 0,12.2627 15.21111,0 0,2.32299 z" />
      <path
         id="path4219"
         style="font-style:normal;font-variant:normal;font-weight:300;font-stretch:normal;font-size:45.74500275px;line-height:80.00000119%;font-family:Roboto;-inkscape-font-specification:'Roboto, Light';text-align:center;writing-mode:lr-tb;text-anchor:middle;fill:#a2b2bf;fill-opacity:1"
         d="m 327.11098,159.55892 0,-32.52183 9.09093,0 q 3.99822,0 7.16999,1.83158 3.17177,1.80925 4.93635,5.20439 1.78692,3.39514 1.78692,7.7284 l 0,2.99309 q 0,4.3556 -1.76458,7.7284 -1.76458,3.3728 -4.98102,5.20439 -3.19411,1.83158 -7.34869,1.83158 l -8.8899,0 z m 2.74738,-30.17651 0,27.85353 6.16486,0 q 5.13738,0 8.24214,-3.39514 3.10476,-3.41747 3.10476,-9.22495 l 0,-2.85906 q 0,-5.60644 -3.06009,-8.97924 -3.06009,-3.3728 -8.06345,-3.39514 l -6.38822,0 z" />
    </g>
  </g>
</svg>
