<?xml version="1.0" encoding="UTF-8" standalone="no"?>
<svg
   xmlns:dc="http://purl.org/dc/elements/1.1/"
   xmlns:cc="http://creativecommons.org/ns#"
   xmlns:rdf="http://www.w3.org/1999/02/22-rdf-syntax-ns#"
   xmlns:svg="http://www.w3.org/2000/svg"
   xmlns="http://www.w3.org/2000/svg"
   version="1.1"
   viewBox="0.0 0.0 450.0 250.0"
   fill="none"
   stroke="none"
   stroke-linecap="square"
   stroke-miterlimit="10"
   id="svg2">
  <metadata
     id="metadata25">
    <rdf:RDF>
      <cc:Work
         rdf:about="">
        <dc:format>image/svg+xml</dc:format>
        <dc:type
           rdf:resource="http://purl.org/dc/dcmitype/StillImage" />
        <dc:title></dc:title>
      </cc:Work>
    </rdf:RDF>
  </metadata>
  <defs
     id="defs23">
    <filter
       id="filter4298"
       style="color-interpolation-filters:sRGB;"
       x="0"
       y="0"
       width="1"
       height="1">
      <feGaussianBlur
         id="feGaussianBlur4300"
         result="blur"
         stdDeviation="10 10" />
      <feColorMatrix
         id="feColorMatrix4302"
         result="colormatrix"
         values="1 0 0 0 0 0 1 0 0 0 0 0 1 0 0 0 0 0 50 0 " />
      <feComposite
         id="feComposite4304"
         operator="in"
         in2="SourceGraphic"
         in="colormatrix" />
    </filter>
  </defs>
  <clipPath
     id="p.0">
    <path
       d="m0 0l450.0 0l0 250.0l-450.0 0l0 -250.0z"
       clip-rule="nonzero"
       id="path5" />
  </clipPath>
  <path
     id="path4168"
     d="m 223.23097,174.24047 c -0.50085,-0.50086 -0.75954,-3.18795 -0.75954,-7.88964 0,-6.48229 0.11501,-7.19164 1.2659,-7.80758 0.89942,-0.48136 1.63239,-0.48136 2.53181,0 1.15089,0.61594 1.26591,1.32529 1.26591,7.80758 0,7.25654 -0.40766,8.64918 -2.53181,8.64918 -0.557,0 -1.35452,-0.34179 -1.77227,-0.75954 z m -18.42729,-4.20146 c -0.52609,-0.98301 -0.11917,-2.55951 1.96848,-7.62633 2.60055,-6.31165 3.6314,-7.49626 5.79934,-6.66435 1.59219,0.61099 1.2626,2.74202 -1.42436,9.20934 -2.11347,5.08697 -2.69121,5.95599 -4.07162,6.12432 -1.08525,0.13234 -1.82444,-0.20701 -2.27184,-1.04298 z m 35.73813,-0.89381 c -4.63926,-11.18028 -4.99297,-12.77946 -2.9687,-13.42194 2.18113,-0.69226 3.03726,0.321 5.66983,6.71035 2.86358,6.95003 2.81066,8.76869 -0.25513,8.76869 -1.1995,0 -1.80302,-0.50757 -2.446,-2.0571 z m -50.85731,-8.82969 c -1.45297,-1.45296 -0.73043,-2.78034 4.15983,-7.64192 4.90731,-4.87852 6.17673,-5.56734 7.61308,-4.13099 1.45297,1.45297 0.73042,2.78035 -4.15984,7.64193 -4.9073,4.87852 -6.17673,5.56733 -7.61307,4.13098 z m 62.99555,-4.15983 c -4.87852,-4.90731 -5.56733,-6.17673 -4.13098,-7.61308 1.45296,-1.45297 2.78034,-0.73042 7.64192,4.15984 4.87853,4.9073 5.56734,6.17673 4.13099,7.61307 -1.45297,1.45297 -2.78034,0.73043 -7.64193,-4.15983 z m -72.85294,-11.08416 c -0.70222,-0.51348 -1.06464,-1.42639 -0.93127,-2.3458 0.181,-1.2477 1.23916,-1.91835 6.1859,-3.9205 6.54278,-2.64812 8.56552,-2.95181 9.16994,-1.37671 0.95994,2.50156 -0.61656,3.52919 -12.62384,8.22878 -0.35812,0.14016 -1.16844,-0.12343 -1.80073,-0.58577 z m 82.37017,-1.87865 c -6.08219,-2.55602 -7.26688,-3.61601 -6.44249,-5.76436 0.60443,-1.5751 2.62717,-1.27141 9.16995,1.37671 4.94673,2.00215 6.0049,2.6728 6.18589,3.9205 0.19285,1.32932 -1.29961,3.26484 -2.39642,3.10784 -0.19455,-0.0279 -3.12717,-1.21616 -6.51693,-2.64069 z M 175.75954,126.76904 C 175.34179,126.35129 175,125.55377 175,124.99677 c 0,-2.12415 1.39264,-2.53181 8.64918,-2.53181 6.48229,0 7.19164,0.11502 7.80758,1.26591 0.48136,0.89942 0.48136,1.63239 0,2.53181 -0.61594,1.15089 -1.32529,1.2659 -7.80758,1.2659 -4.70169,0 -7.38878,-0.25869 -7.88964,-0.75954 z m 82.80077,-0.48656 c -0.49548,-0.92582 -0.49548,-1.64559 0,-2.57142 0.63995,-1.19575 1.20136,-1.27324 8.02482,-1.10766 6.17684,0.14989 7.44696,0.35315 8.03404,1.28571 0.50777,0.8066 0.50777,1.40873 0,2.21533 -0.58708,0.93255 -1.8572,1.13581 -8.03404,1.28571 -6.82346,0.16558 -7.38487,0.0881 -8.02482,-1.10767 z m -73.74955,-15.18596 c -4.85645,-2.05798 -5.7255,-2.65159 -5.89274,-4.02506 -0.13243,-1.08759 0.20646,-1.82655 1.04298,-2.27425 0.98288,-0.52602 2.55586,-0.12067 7.6054,1.95986 6.38935,2.63257 7.40261,3.4887 6.71035,5.66983 -0.5577,1.75712 -2.98511,1.41597 -9.46599,-1.33038 z m 70.91897,1.33038 c -0.69226,-2.18113 0.32099,-3.03726 6.71035,-5.66983 5.04953,-2.08053 6.62252,-2.48588 7.60539,-1.95986 0.83597,0.4474 1.17533,1.18659 1.04299,2.27185 -0.16834,1.3804 -1.03735,1.95815 -6.12432,4.07162 -6.62762,2.75356 -8.67805,3.03915 -9.23441,1.28622 z M 193.81548,97.291097 c -4.87852,-4.9073 -5.56733,-6.17673 -4.13098,-7.61307 1.45296,-1.452969 2.78034,-0.730419 7.64192,4.159841 4.87852,4.9073 5.56734,6.176732 4.13099,7.613072 -1.45297,1.45297 -2.78035,0.73042 -7.64193,-4.159842 z m 54.73359,4.159843 c -1.45297,-1.452973 -0.73042,-2.780343 4.15983,-7.641923 4.90731,-4.87853 6.17673,-5.56734 7.61308,-4.13099 1.45297,1.45297 0.73042,2.78034 -4.15984,7.64192 -4.9073,4.878533 -6.17673,5.567343 -7.61307,4.130993 z m -38.51288,-7.320293 c -0.39909,-0.25576 -1.89106,-3.26712 -3.31551,-6.69191 -2.06403,-4.96255 -2.45425,-6.48034 -1.92186,-7.47513 0.45204,-0.84464 1.18817,-1.1848 2.2767,-1.05206 1.38041,0.16834 1.95815,1.03735 4.07162,6.12432 1.35462,3.26049 2.46295,6.57675 2.46295,7.36948 0,1.82285 -1.95158,2.76498 -3.5739,1.7253 z m 27.15138,0.0652 c -1.32152,-0.53324 -0.90558,-2.87032 1.62325,-9.12059 2.11175,-5.2194 2.6222,-5.99214 4.07162,-6.16372 1.1359,-0.13446 1.86732,0.19647 2.32521,1.05206 0.5324,0.99479 0.14217,2.51258 -1.92186,7.47513 -2.94417,7.078681 -3.57341,7.77591 -6.09822,6.75712 z m -13.66788,-2.9115 c -0.94391,-0.69021 -1.068,-1.77886 -0.91216,-8.00264 0.15144,-6.04836 0.35803,-7.31557 1.28804,-7.90097 0.80652,-0.50766 1.40882,-0.50766 2.21533,0 0.93001,0.5854 1.1366,1.85261 1.28805,7.90097 0.15583,6.22378 0.0318,7.31243 -0.91217,8.00264 -0.6009,0.43939 -1.26849,0.79889 -1.48354,0.79889 -0.21505,0 -0.88265,-0.3595 -1.48355,-0.79889 z"
     style="fill:#813136;fill-opacity:1" />
</svg>
