<?xml version="1.0" standalone="yes"?>

<svg version="1.1" viewBox="0.0 0.0 950.0 550.0" fill="none" stroke="none" stroke-linecap="square" stroke-miterlimit="10" xmlns="http://www.w3.org/2000/svg" xmlns:xlink="http://www.w3.org/1999/xlink"><clipPath id="p.0"><path d="m0 0l950.0 0l0 550.0l-950.0 0l0 -550.0z" clip-rule="nonzero"></path></clipPath><g clip-path="url(#p.0)"><path fill="#000000" fill-opacity="0.0" d="m0 0l950.0 0l0 550.0l-950.0 0z" fill-rule="evenodd"></path><path fill="#2b2b2b" d="m-0.005540945 0.023097113l949.95276 0l0 550.04724l-949.95276 0z" fill-rule="evenodd"></path><path fill="#000000" fill-opacity="0.0" d="m0 213.15457l949.95276 0l0 81.98425l-949.95276 0z" fill-rule="evenodd"></path><path fill="#a2b2bf" d="m152.21661 261.19357l0 28.953125l-6.0 0l0 -71.09375l24.21875 0q11.078125 0 17.5 5.671875q6.421875 5.65625 6.421875 15.5625q0 10.015625 -6.171875 15.46875q-6.171875 5.4375 -17.890625 5.4375l-18.078125 0zm0 -5.078125l18.21875 0q8.734375 0 13.328125 -4.140625q4.59375 -4.15625 4.59375 -11.578125q0 -7.375 -4.5625 -11.75q-4.5625 -4.375 -12.96875 -4.46875l-18.609375 0l0 31.9375zm61.634766 28.953125l35.09375 0l0 5.078125l-41.15625 0l0 -71.09375l6.0625 0l0 66.015625zm84.99805 -14.84375l-32.265625 0l-7.328125 19.921875l-6.296875 0l26.90625 -71.09375l5.703125 0l26.90625 71.09375l-6.25 0l-7.375 -19.921875zm-30.421875 -5.125l28.515625 0l-14.25 -38.71875l-14.265625 38.71875zm104.8418 2.875q-1.21875 11.234375 -8.03125 17.203125q-6.8125 5.953125 -18.140625 5.953125q-7.90625 0 -13.984375 -3.953125q-6.078125 -3.96875 -9.40625 -11.21875q-3.3125 -7.25 -3.375 -16.578125l0 -9.21875q0 -9.484375 3.3125 -16.796875q3.328125 -7.328125 9.546875 -11.3125q6.234375 -3.984375 14.34375 -3.984375q11.421875 0 18.03125 6.1875q6.625 6.171875 7.703125 17.0625l-6.0625 0q-2.234375 -18.109375 -19.671875 -18.109375q-9.671875 0 -15.40625 7.234375q-5.734375 7.21875 -5.734375 19.953125l0 8.6875q0 12.3125 5.59375 19.640625q5.59375 7.3125 15.109375 7.3125q9.421875 0 14.203125 -4.515625q4.796875 -4.515625 5.90625 -13.546875l6.0625 0zm53.86328 -11.90625l-33.265625 0l0 29.0l38.234375 0l0 5.078125l-44.234375 0l0 -71.09375l44.0 0l0 5.125l-38.0 0l0 26.8125l33.265625 0l0 5.078125zm70.30664 34.078125l-6.0625 0l0 -34.078125l-40.625 0l0 34.078125l-6.0 0l0 -71.09375l6.0 0l0 31.9375l40.625 0l0 -31.9375l6.0625 0l0 71.09375zm70.61133 -31.6875q0 9.8125 -3.40625 17.234375q-3.390625 7.421875 -9.6875 11.4375q-6.296875 4.0 -14.546875 4.0q-12.453125 0 -20.125 -8.90625q-7.65625 -8.921875 -7.65625 -24.0625l0 -7.328125q0 -9.71875 3.4375 -17.203125q3.4375 -7.5 9.734375 -11.53125q6.3125 -4.03125 14.515625 -4.03125q8.203125 0 14.46875 3.96875q6.28125 3.953125 9.6875 11.1875q3.421875 7.21875 3.578125 16.734375l0 8.5zm-6.015625 -7.71875q0 -12.84375 -5.8125 -20.109375q-5.8125 -7.28125 -15.90625 -7.28125q-9.921875 0 -15.8125 7.296875q-5.875 7.296875 -5.875 20.390625l0 7.421875q0 12.640625 5.859375 20.046875q5.859375 7.390625 15.921875 7.390625q10.203125 0 15.90625 -7.296875q5.71875 -7.296875 5.71875 -20.34375l0 -7.515625zm27.207031 34.328125l35.09375 0l0 5.078125l-41.15625 0l0 -71.09375l6.0625 0l0 66.015625zm46.623047 5.078125l0 -71.09375l19.875 0q8.734375 0 15.671875 3.984375q6.9375 3.96875 10.8125 11.390625q3.890625 7.421875 3.890625 16.90625l0 6.53125q0 9.53125 -3.859375 16.90625q-3.859375 7.359375 -10.875 11.375q-7.0 4.0 -16.078125 4.0l-19.4375 0zm6.0 -65.96875l0 60.890625l13.484375 0q11.234375 0 18.015625 -7.4375q6.78125 -7.453125 6.78125 -20.15625l0 -6.25q0 -12.25 -6.6875 -19.625q-6.6875 -7.375 -17.625 -7.421875l-13.96875 0zm98.74414 31.890625l-33.265625 0l0 29.0l38.234375 0l0 5.078125l-44.234375 0l0 -71.09375l44.0 0l0 5.125l-38.0 0l0 26.8125l33.265625 0l0 5.078125zm44.18164 4.484375l-20.65625 0l0 29.59375l-6.046875 0l0 -71.09375l23.09375 0q11.375 0 17.765625 5.515625q6.40625 5.515625 6.40625 15.4375q0 6.828125 -4.015625 12.0625q-4.0 5.21875 -10.734375 7.21875l17.765625 30.21875l0 0.640625l-6.390625 0l-17.1875 -29.59375zm-20.65625 -5.125l18.40625 0q7.578125 0 12.15625 -4.296875q4.59375 -4.296875 4.59375 -11.125q0 -7.53125 -4.78125 -11.671875q-4.78125 -4.15625 -13.421875 -4.15625l-16.953125 0l0 31.25z" fill-rule="nonzero"></path><path fill="#000000" fill-opacity="0.0" d="m0.005540945 295.06274l949.95276 0l0 41.795288l-949.95276 0z" fill-rule="evenodd"></path><path fill="#a2b2bf" d="m192.13371 321.23788q-0.375 4.0625 -2.796875 6.25q-2.421875 2.171875 -6.578125 2.171875q-2.796875 0 -4.96875 -1.40625q-2.15625 -1.421875 -3.34375 -4.03125q-1.1875 -2.625 -1.203125 -5.984375l0 -4.0625q0 -3.359375 1.171875 -6.0q1.171875 -2.65625 3.34375 -4.09375q2.171875 -1.453125 5.0 -1.453125q4.109375 0 6.546875 2.171875q2.453125 2.171875 2.828125 6.21875l-0.96875 0q-0.421875 -3.640625 -2.546875 -5.515625q-2.109375 -1.890625 -5.859375 -1.890625q-3.828125 0 -6.1875 2.890625q-2.359375 2.890625 -2.359375 7.75l0 3.859375q0 3.109375 1.046875 5.515625q1.046875 2.390625 3.0 3.734375q1.96875 1.328125 4.5 1.328125q3.78125 0 5.890625 -1.859375q2.125 -1.875 2.515625 -5.59375l0.96875 0zm24.921112 -3.125q0 3.421875 -1.21875 6.046875q-1.21875 2.625 -3.484375 4.0625q-2.25 1.4375 -5.1875 1.4375q-4.453125 0 -7.203125 -3.15625q-2.734375 -3.171875 -2.734375 -8.53125l0 -3.796875q0 -3.390625 1.21875 -6.03125q1.21875 -2.640625 3.484375 -4.078125q2.265625 -1.4375 5.1875 -1.4375q2.953125 0 5.21875 1.4375q2.265625 1.4375 3.484375 4.09375q1.234375 2.640625 1.234375 6.015625l0 3.9375zm-0.96875 -3.96875q0 -4.765625 -2.421875 -7.640625q-2.421875 -2.890625 -6.546875 -2.890625q-4.0625 0 -6.484375 2.859375q-2.421875 2.859375 -2.421875 7.796875l0 3.84375q0 3.140625 1.09375 5.5625q1.09375 2.40625 3.109375 3.71875q2.03125 1.296875 4.75 1.296875q4.109375 0 6.515625 -2.875q2.40625 -2.875 2.40625 -7.84375l0 -3.828125zm26.15799 15.15625l-0.96875 0l-16.984375 -24.640625l0 24.640625l-1.0 0l0 -26.3125l1.0 0l16.984375 24.59375l0 -24.59375l0.96875 0l0 26.3125zm24.972916 -25.328125l-9.578125 0l0 25.328125l-0.984375 0l0 -25.328125l-9.5625305 0l0 -0.984375l20.12503 0l0 0.984375zm18.965637 12.28125l-13.1875 0l0 12.078125l15.03125 0l0 0.96875l-16.015625 0l0 -26.3125l16.015625 0l0 0.984375l-15.03125 0l0 11.3125l13.1875 0l0 0.96875zm26.033478 13.046875l-0.96875 0l-16.984375 -24.640625l0 24.640625l-1.0 0l0 -26.3125l1.0 0l16.984375 24.59375l0 -24.59375l0.96875 0l0 26.3125zm24.97287 -25.328125l-9.578125 0l0 25.328125l-0.984375 0l0 -25.328125l-9.5625 0l0 -0.984375l20.125 0l0 0.984375zm18.943573 23.703125l1.203125 -4.34375l6.203125 -20.34375l1.09375 0l6.171875 20.34375l1.171875 4.34375l1.234375 -4.34375l5.421875 -20.34375l1.0625 0l-7.078125 26.3125l-1.109375 0l-6.515625 -21.9375l-0.921875 -2.78125l-0.890625 2.78125l-6.578125 21.9375l-1.09375 0l-7.09375 -26.3125l1.078125 0l5.453125 20.34375l1.1875 4.34375zm30.29477 1.625l-0.96875 0l0 -26.3125l0.96875 0l0 26.3125zm9.029907 -0.96875l13.5 0l0 0.96875l-14.5 0l0 -26.3125l1.0 0l0 25.34375zm19.265533 0l13.5 0l0 0.96875l-14.5 0l0 -26.3125l1.0 0l0 25.34375zm27.196564 0.96875l0 -26.3125l6.921875 0q4.25 0 6.421875 1.734375q2.171875 1.71875 2.171875 5.015625q0 2.375 -1.203125 3.953125q-1.203125 1.578125 -3.421875 2.0q2.5 0.328125 4.15625 2.171875q1.671875 1.828125 1.671875 4.1875q0 3.359375 -2.1875 5.3125q-2.171875 1.9375 -6.046875 1.9375l-8.484375 0zm0.984375 -12.984375l0 12.015625l7.59375 0q3.34375 0 5.25 -1.65625q1.90625 -1.65625 1.90625 -4.578125q0 -2.5 -1.84375 -4.109375q-1.84375 -1.625 -4.921875 -1.671875l-7.984375 0zm0 -0.984375l6.296875 0q3.59375 0 5.421875 -1.375q1.828125 -1.390625 1.828125 -4.296875q0 -5.59375 -7.390625 -5.6875l-6.15625 0l0 11.359375zm35.697388 0.921875l-13.1875 0l0 12.078125l15.03125 0l0 0.96875l-16.015625 0l0 -26.3125l16.015625 0l0 0.984375l-15.03125 0l0 11.3125l13.1875 0l0 0.96875zm29.870789 5.1875l-12.875 0l-2.9375 7.859375l-1.0625 0l9.84375 -26.3125l1.203125 0l9.84375 26.3125l-1.0625 0l-2.953125 -7.859375zm-12.515625 -0.96875l12.15625 0l-6.078125 -16.296875l-6.078125 16.296875zm27.869263 6.265625l0.53125 1.59375l0.515625 -1.59375l8.84375 -23.75l1.0625 0l-9.828125 26.3125l-1.203125 0l-9.828125 -26.3125l1.078125 0l8.828125 23.75zm29.228699 -5.296875l-12.875 0l-2.9375 7.859375l-1.0625 0l9.84375 -26.3125l1.203125 0l9.84375 26.3125l-1.0625 0l-2.953125 -7.859375zm-12.515625 -0.96875l12.15625 0l-6.078125 -16.296875l-6.078125 16.296875zm22.650574 8.828125l-0.96875 0l0 -26.3125l0.96875 0l0 26.3125zm9.029846 -0.96875l13.5 0l0 0.96875l-14.5 0l0 -26.3125l1.0 0l0 25.34375zm32.12494 -6.890625l-12.875 0l-2.9375 7.859375l-1.0625 0l9.84375 -26.3125l1.203125 0l9.84375 26.3125l-1.0625 0l-2.953125 -7.859375zm-12.515625 -0.96875l12.15625 0l-6.078125 -16.296875l-6.078125 16.296875zm20.947388 8.828125l0 -26.3125l6.921875 0q4.25 0 6.421875 1.734375q2.171875 1.71875 2.171875 5.015625q0 2.375 -1.203125 3.953125q-1.203125 1.578125 -3.421875 2.0q2.5 0.328125 4.15625 2.171875q1.671875 1.828125 1.671875 4.1875q0 3.359375 -2.1875 5.3125q-2.171875 1.9375 -6.046875 1.9375l-8.484375 0zm0.984375 -12.984375l0 12.015625l7.59375 0q3.34375 0 5.25 -1.65625q1.90625 -1.65625 1.90625 -4.578125q0 -2.5 -1.84375 -4.109375q-1.84375 -1.625 -4.921875 -1.671875l-7.984375 0zm0 -0.984375l6.296875 0q3.59375 0 5.421875 -1.375q1.828125 -1.390625 1.828125 -4.296875q0 -5.59375 -7.390625 -5.6875l-6.15625 0l0 11.359375zm22.525513 13.0l13.5 0l0 0.96875l-14.5 0l0 -26.3125l1.0 0l0 25.34375zm32.43744 -12.078125l-13.1875 0l0 12.078125l15.03125 0l0 0.96875l-16.015625 0l0 -26.3125l16.015625 0l0 0.984375l-15.03125 0l0 11.3125l13.1875 0l0 0.96875zm31.777039 6.734375q0 -1.671875 -0.796875 -2.828125q-0.78125 -1.171875 -2.46875 -2.0625q-1.6875 -0.90625 -5.109375 -1.84375q-3.40625 -0.9375 -5.125 -1.890625q-1.703125 -0.96875 -2.5 -2.21875q-0.796875 -1.265625 -0.796875 -3.078125q0 -2.875 2.421875 -4.65625q2.421875 -1.78125 6.3125 -1.78125q2.53125 0 4.546875 0.984375q2.015625 0.984375 3.109375 2.765625q1.109375 1.78125 1.109375 4.03125l-0.984375 0q0 -2.953125 -2.171875 -4.875q-2.15625 -1.921875 -5.609375 -1.921875q-3.46875 0 -5.609375 1.546875q-2.140625 1.546875 -2.140625 3.875q0 2.359375 1.859375 3.8125q1.859375 1.4375 6.140625 2.546875q4.28125 1.109375 6.265625 2.578125q2.53125 1.859375 2.53125 4.984375q0 1.984375 -1.125 3.515625q-1.109375 1.53125 -3.171875 2.359375q-2.0625 0.828125 -4.625 0.828125q-2.859375 0 -5.140625 -0.9375q-2.265625 -0.953125 -3.421875 -2.703125q-1.140625 -1.765625 -1.140625 -4.140625l0.96875 0q0 3.234375 2.421875 5.03125q2.421875 1.78125 6.3125 1.78125q3.453125 0 5.6875 -1.578125q2.25 -1.59375 2.25 -4.125zm24.931824 -4.875q0 3.421875 -1.21875 6.046875q-1.21875 2.625 -3.484375 4.0625q-2.25 1.4375 -5.1875 1.4375q-4.453125 0 -7.203125 -3.15625q-2.734375 -3.171875 -2.734375 -8.53125l0 -3.796875q0 -3.390625 1.21875 -6.03125q1.21875 -2.640625 3.484375 -4.078125q2.265625 -1.4375 5.1875 -1.4375q2.953125 0 5.21875 1.4375q2.265625 1.4375 3.484375 4.09375q1.234375 2.640625 1.234375 6.015625l0 3.9375zm-0.96875 -3.96875q0 -4.765625 -2.421875 -7.640625q-2.421875 -2.890625 -6.546875 -2.890625q-4.0625 0 -6.484375 2.859375q-2.421875 2.859375 -2.421875 7.796875l0 3.84375q0 3.140625 1.09375 5.5625q1.09375 2.40625 3.109375 3.71875q2.03125 1.296875 4.75 1.296875q4.109375 0 6.515625 -2.875q2.40625 -2.875 2.40625 -7.84375l0 -3.828125zm25.829895 3.96875q0 3.421875 -1.21875 6.046875q-1.21875 2.625 -3.484375 4.0625q-2.25 1.4375 -5.1875 1.4375q-4.453125 0 -7.203125 -3.15625q-2.734375 -3.171875 -2.734375 -8.53125l0 -3.796875q0 -3.390625 1.21875 -6.03125q1.21875 -2.640625 3.484375 -4.078125q2.265625 -1.4375 5.1875 -1.4375q2.953125 0 5.21875 1.4375q2.265625 1.4375 3.484375 4.09375q1.234375 2.640625 1.234375 6.015625l0 3.9375zm-0.96875 -3.96875q0 -4.765625 -2.421875 -7.640625q-2.421875 -2.890625 -6.546875 -2.890625q-4.0625 0 -6.484375 2.859375q-2.421875 2.859375 -2.421875 7.796875l0 3.84375q0 3.140625 1.09375 5.5625q1.09375 2.40625 3.109375 3.71875q2.03125 1.296875 4.75 1.296875q4.109375 0 6.515625 -2.875q2.40625 -2.875 2.40625 -7.84375l0 -3.828125zm26.157959 15.15625l-0.96875 0l-16.984375 -24.640625l0 24.640625l-1.0 0l0 -26.3125l1.0 0l16.984375 24.59375l0 -24.59375l0.96875 0l0 26.3125z" fill-rule="nonzero"></path></g></svg>

